<?xml version="1.0" standalone="no"?><!DOCTYPE svg PUBLIC "-//W3C//DTD SVG 1.1//EN" "http://www.w3.org/Graphics/SVG/1.1/DTD/svg11.dtd"><svg t="1676818195274" class="icon" viewBox="0 0 1024 1024" version="1.1" xmlns="http://www.w3.org/2000/svg" p-id="1181" xmlns:xlink="http://www.w3.org/1999/xlink" width="128" height="128"><path d="M803.1 366.7l-0.8-10.4c-1.3-14.2-3.6-27.4-6.7-40.4l-7.8-25.9c-6.2-18.6-14.2-36-24.1-52l-6.2-9.8c-17.1-24.9-38.6-46.1-64.7-63.4l-8-4.9c-32.6-20.2-71.5-34.7-117.3-43.8l-15.3-2.8c-27.4-3.9-54.9-3.6-82.3 0.5l-13.2 2.3c-45.6 9.1-84.9 23.6-117.3 43.8l-7.8 4.9c-26.4 17.3-47.9 38.6-64.7 63.4l-6.5 9.8c-9.8 16.1-17.9 33.4-24.1 52l-0.5 0.8-6.2 21.2-0.8 3.9c-3.4 12.9-5.7 26.2-6.7 40.4l-0.8 10.4c-1.8 24.9-0.5 51.5 3.4 80.3l0.3 2.8c16.1 70.7 26.4 142.4 31.1 215.4 0.8 8 5.7 33.4 5.7 33.4 19.2 79.5 56.7 137.2 112.9 173.5l23.8 14 7.5 3.6c34.2 16.6 69.4 24.6 106.2 23.8 34 0.7 67.2-6.2 99-20.6 2.3-1 20.1-10.1 20.1-10.1l18.1-10.7c56.4-36.2 94.3-94 113.4-173.5l5.4-33.4c4.7-73 15-144.7 31.1-215.4l0.3-2.8c3.5-28.8 4.7-55.5 3.5-80.3zM511 165.6l11.9 246.6L511 638.8l-12-226.3 12-246.9z m87.8 559.6c-6 0.7-13.4 7-22.6 18.4-9.5 11.4-21.1 16.7-35.3 15.4l-18.6-1.5h-1l-9.2-0.7-28.6 2.2c-14.4 1.2-26.4-4-35.6-15.4-9.2-11.4-16.9-17.7-22.6-18.4v-0.2c18.4-5 35.8-6.2 52.2-4l34.6 2.5 34.6-2.5c16.4-2.2 33.8-1 52.2 4v0.2z" fill="#CC0019" p-id="1182"></path><path d="M408.8 496.7m-19.9 0a19.9 19.9 0 1 0 39.8 0 19.9 19.9 0 1 0-39.8 0Z" fill="#FFBE92" p-id="1183"></path><path d="M618.8 496.7m-19.9 0a19.9 19.9 0 1 0 39.8 0 19.9 19.9 0 1 0-39.8 0Z" fill="#FFBE92" p-id="1184"></path><path d="M210.6 379.3z" fill="#231815" p-id="1185"></path><path d="M210.1 347.7a10 10 0 1 0 20 0 10 10 0 1 0-20 0Z" fill="#231815" p-id="1186"></path><path d="M813 366.2l-0.8-10.6v-0.2c-1.3-13.8-3.5-27.5-7-41.8l-7.9-26.4-0.1-0.3c-6.4-19.3-14.8-37.5-25-54.1l-6.3-9.9-0.2-0.3c-17.9-26.1-40.6-48.3-67.4-66.1l-8.3-5.1c-33.9-21-73.3-35.7-120.6-45.1l-15.4-2.9-0.4-0.1c-28-4-56.7-3.8-85.2 0.5l-13.5 2.4h-0.2c-47.1 9.4-87.7 24.5-120.7 45.1l-7.8 4.9-0.1 0.1c-27.1 17.8-49.8 40.1-67.5 66.2l-6.5 9.9-0.2 0.3c-3.1 5.1-6 10.3-8.8 15.7-0.1 0.1-1 1.8-1.3 2.5-0.4 1.1-0.7 2.3-0.7 3.6 0 5.5 4.5 10 10 10 3.4 0 6.4-1.7 8.2-4.3 0.2-0.2 0.8-1.3 0.9-1.7 2.7-5.2 5.5-10.4 8.5-15.3l6.3-9.6c16.2-23.9 37-44.2 61.8-60.6l7.6-4.8c30.8-19.2 69.1-33.5 113.8-42.4l13-2.3c26.5-4 53.1-4.2 79.1-0.5l15 2.8c44.9 8.9 82.1 22.8 113.9 42.5l7.9 4.8c24.6 16.3 45.3 36.7 61.8 60.5l6.1 9.6c9.4 15.3 17.1 32 23 49.8l7.6 25.5c3.2 13.2 5.3 25.9 6.4 38.6l0.8 10.2c1.2 23.9 0.1 49.6-3.6 78.4l-0.2 2.5c-16 70.6-26.5 143.2-31.1 215.8l-5.3 32.6c-18.4 76.2-55 132.3-108.9 166.9L626.4 874c-8.6 4.4-18.1 9.2-19.4 9.8-30.4 13.8-62.3 20.4-94.7 19.7h-0.4c-35.1 0.7-68.4-6.7-101.6-22.8l-7.1-3.4-23.3-13.7C326.4 829 290 772.8 271.5 696.5c-1.4-7.1-4.9-25.8-5.5-32.1-4.7-72.8-15.1-145.5-31.1-216.2l-0.2-2.2v-0.4c-3.3-24.1-4.5-45.8-3.9-65.9v-0.6c-0.1-5.4-4.6-9.7-10-9.7-2.8 0-5.4 1.2-7.2 3.1-1.7 1.8-2.8 4.2-2.8 6.9-0.6 21.1 0.7 43.7 4.1 68.7l0.3 3.3 0.1 0.6c15.9 69.9 26.2 141.8 30.8 213.8v0.3c0.8 8.3 5.3 31.7 5.8 34.4l0.1 0.4c19.6 81.7 59 142.1 117.1 179.6l24.2 14.2 8.2 4c35.5 17.2 72.7 25.6 110.5 24.8h4.8c33.7 0 66.8-7.2 98.4-21.5 2.4-1.1 17.6-8.8 20.6-10.3l18.6-11 0.3-0.2c58.5-37.5 98.1-97.9 117.7-179.5l5.6-34.1 0.1-1c4.6-72 15-144 30.8-213.8l0.1-0.7 0.3-3.3c3.8-30.1 5-56.9 3.7-81.9z" fill="#231815" p-id="1187"></path><path d="M546.8 721.5l-34.7 2.5-34.7-2.5c-16.5-2.2-34-1-52.4 4v0.2c5.7 0.8 13.5 7 22.7 18.5s21.2 16.7 35.7 15.5l28.7-2.2 9.2 0.7h1l18.7 1.5c14.2 1.2 26-4 35.5-15.5 9.2-11.5 16.7-17.7 22.7-18.5v-0.2c-18.5-5-35.9-6.3-52.4-4z" fill="#FFBE92" p-id="1188"></path><path d="M783 313.5c-24.4 8.9-47.7 30.8-69.6 65.6-28.3 53.5-67.9 82.8-119.1 87.5-10.9 0.8-21.9-0.7-33.1-4.5l-0.7 0.5c5 12.2 7.5 21.6 7.5 29.1l-1 24.6c-0.5 9.4 1.2 17.7 6 24.4l1.2 2.2c5.2 5 10.7 8.7 16.2 10.9 4.2 1.7 9 2.5 13.7 2.2 7 0 14.4-2.5 22.1-7.2l18.4-12.7c17.4-10.4 39.3-13.9 65.9-9.7 28.6 4.2 46.7-8.2 54.4-37.3l0.5-2.2c2-10.7 2.5-20.9 1.5-30.3l-4-25.4c-4-37.9 2.4-77.2 20.1-117.7zM675.3 478.3c-3.7 7-11.2 14.7-22.6 23.6-8.7 5.5-16.9 9.4-25.1 11.9l-5.2 1.2-2.7 0.5c-13.9 2.5-27.1 0-39.3-7.2 3.7-12.9 10.4-21.9 19.6-26.6l2.7-1.5 2.2-0.7 1.2-0.2c6.2-1.7 13.4-3 21.4-3.5l5.7-0.2 42.1 2.7z" fill="#A80000" p-id="1189"></path><path d="M685.5 170l-0.5 0.2c-28.6 25.6-45.2 71.4-49.7 137.5-5.5 62.7-29.8 112.1-72.9 148.9l-2.5 2c57.7-21.6 94.7-57.7 111.4-108.2 12.9-57.9 38.5-97.5 77.1-118.3l-0.7-1.2c-16.4-23.8-37.1-44.2-62.2-60.9zM668.6 668.5l-4-13.2c-4.2-12.2-9.9-23.6-16.7-34.3l-1-1c-17.9-25.9-37-36-57.4-30.6-12.9 3.2-15.7 13.7-8.2 31.1 4.7 22.6 0.7 36.5-12.4 41.8-12.9 3.7-23.4-0.2-31.8-11.4-0.3-3 2-3.7 7-2.5 1 2.7 4.5 5 10.9 6.2 6.2 1.2 11.7-0.7 16.2-5.5 4.5-5 6.2-10.4 5.5-16.9l-1.7-9.9c-3.7-11.9-9-19.9-15.4-23.9-3.5-1.7-5-1.7-5.5 0l5 3.5c4 3.5 7.5 9.2 10.4 17.2 2.5 8.2 3 14.9 1.2 19.9l-2.7 4.5c-2.5 3-5.5 5-8.9 5.2h-2c-1.2-0.7-1.2-2.2 0-5.2-2.7-12.9-10.2-13.9-21.6-2.7l-1.5 1.5-0.3 0.2c-5.2 5.5-10.2 9-14.2 10.7v0.3h-0.2l-2 0.2-12.7-0.5c-4.5-1.7-8.5-4.7-12.7-8.7-14.4-14.9-22.9-15.2-25.1-1 1.2 3 1.2 4.5 0.5 5.2h-2.5c-3.2-0.2-6.2-2.2-8.7-5.2-1.2-1.2-2-2.7-2.7-4.5-1.7-5-1.5-11.7 1-19.9 4.5-11.2 9.4-18.2 15.4-20.6-0.2-1.7-2-1.7-5.5 0l-1.2 1c-5.7 4.2-10.4 11.9-13.9 22.9-0.5 0-1 3.5-2 9.9-0.7 6.5 1.2 11.9 5.7 16.9 4.5 4.7 9.7 6.7 16.2 5.5 6.5-1.2 9.9-3.5 10.7-6.2 5.2-1.2 7.5-0.5 7 2.5-8.2 11.2-18.9 15.2-31.6 11.4-13.2-5.2-17.4-19.1-12.4-41.8 7.5-17.4 4.5-27.9-8.2-31.1-20.4-5.5-39.5 4.7-57.7 30.6l-0.7 1c-6.7 10.7-12.4 22.1-16.4 34.3l-4.2 13.2c-6.5 21.4-11.4 41.8-14.4 60.7-8.7 41.8 14.5 87.1 68.6 135.6 0.2 0.2 3.3 2.7 4.6 3.4 31.5 14.6 64 21.6 97.8 20.9 34.3 0.7 67.6-6.6 99.5-21.8 0.7-0.3 2.9-2.7 3.4-3.1 53.9-48.2 76.5-93.3 68.1-134.9-3.1-19.1-8.1-39.5-14.6-60.9zM599.2 726c28.7 19.2 38.5 49.4 29.1 90.4-12.9 47.2-51.7 70.6-116.4 69.6-64.9 1-103.7-22.4-116.6-69.6-9.2-41.1 0.7-71.4 29.5-90.5 0 0 1.3-0.7 1.5-0.8 18-4.7 35-5.9 51.1-3.7L512 724l34.6-2.5c16.2-2.2 33.3-1 51.4 3.8 0.2 0 1.1 0.6 1.2 0.7zM310.3 379.1c-21.6-34.8-45-56.7-69.4-65.6 17.4 40.5 24.1 79.8 20.4 117.8l-4.2 25.4c-1 9.4-0.5 19.6 1.5 30.3l0.7 2.2c7.5 29.1 25.4 41.5 54 37.3 26.6-4.2 48.7-0.8 66.1 9.7l18.4 12.7c7.7 4.7 15.2 7.2 22.4 7.2 4.5 0.3 8.9-0.5 13.4-2.2 5.5-2.2 10.9-6 16.2-10.9l1.5-2.2c2.2-3.7 4-8 4.7-12.4l1-11.9-1-24.6c0-7.5 2.5-16.9 7.5-29.1l-1-0.5c-10.9 3.7-21.9 5.2-33.1 4.5-50.9-4.9-90.5-34.2-119.1-87.7zM371 502c-11.4-9-18.6-16.7-22.4-23.6l42.3-2.7 5.5 0.2c8 0.5 15.2 1.7 21.6 3.5l1 0.2 2 0.7 3.2 1.5c9.2 4.7 15.7 13.7 19.4 26.6-12.2 7.2-25.6 9.7-39.5 7.2l-2.2-0.5-5.5-1.2c-8.2-2.5-16.7-6.5-25.4-11.9z" fill="#A80000" p-id="1190"></path><path d="M276.5 230.9l-1 1.2c38.5 20.9 64.1 60.4 76.8 118.3 16.7 50.5 54 86.5 111.6 108.2l-2-1.7c-43.5-36.6-67.9-86.5-73.6-149.2-4.5-66.1-21.1-111.9-49.5-137.5l-0.2-0.2c-25.3 16.7-45.9 37.1-62.1 60.9z" fill="#A80000" p-id="1191"></path></svg>